<svg id="レイヤー_1" data-name="レイヤー 1" xmlns="http://www.w3.org/2000/svg" viewBox="0 0 400 400"><defs><style>.cls-1{fill:#7e7e7e;}</style></defs><title>play</title><path class="cls-1" d="M200,1A198.93,198.93,0,0,1,340.71,340.71,199,199,0,1,1,122.54,16.64,197.67,197.67,0,0,1,200,1m0-1C89.54,0,0,89.54,0,200S89.54,400,200,400s200-89.54,200-200S310.46,0,200,0Z"/><polygon class="cls-1" points="104 62.06 343 200.05 104 338.04 104 62.06"/><path class="cls-1" d="M104.5,62.93,342,200.05,104.5,337.17V62.93m-1-1.73V338.9L344,200.05,103.5,61.2Z"/></svg>