<svg id="レイヤー_1" data-name="レイヤー 1" xmlns="http://www.w3.org/2000/svg" viewBox="0 0 400 400"><defs><style>.cls-1{fill:#7e7e7e;}</style></defs><title>setting</title><path class="cls-1" d="M200,1A198.93,198.93,0,0,1,340.71,340.71,199,199,0,1,1,122.54,16.64,197.67,197.67,0,0,1,200,1m0-1C89.54,0,0,89.54,0,200S89.54,400,200,400s200-89.54,200-200S310.46,0,200,0Z"/><path class="cls-1" d="M188.5,320.5V294.81l-.44-.05a95.2,95.2,0,0,1-24.36-6.41l-.4-.16-13.41,23.17-20.77-12,13.37-23.1-.35-.27a96,96,0,0,1-17.63-17.48l-.27-.34-22.77,13L89.56,250.34l22.56-12.9L112,237a95.12,95.12,0,0,1-6.71-25.09l0-.44H79.5v-24h25.82l.06-.43a94.52,94.52,0,0,1,6.13-23l.16-.4-22.46-13,12-20.78,22.31,12.91.27-.35A96,96,0,0,1,142.3,123.9l.35-.27-13-22.66,20.84-11.91,13,22.67.41-.16a94.93,94.93,0,0,1,24.16-6.33l.44,0V79.5h24v25.82l.43.06a94.77,94.77,0,0,1,24.76,6.85l.41.18,12.69-22,20.77,12-12.84,22.2.34.27a96.52,96.52,0,0,1,17,17.35l.27.35,22.66-13,11.91,20.84-22.67,13,.16.41a95.16,95.16,0,0,1,6.2,23.17l.05.43H320.5v24H294.81l-.05.44A94.55,94.55,0,0,1,287.62,238l-.18.41,22.67,13.11-12,20.78-23-13.31-.27.34a95.93,95.93,0,0,1-16.33,16.14l-.34.27,13,22.77-20.83,11.91-12.9-22.56-.41.17a94.91,94.91,0,0,1-24.1,6.58l-.43.05V320.5Zm11.5-176A55.5,55.5,0,1,0,255.5,200,55.57,55.57,0,0,0,200,144.5Z"/><path class="cls-1" d="M212,80v25.75l.87.12a94.21,94.21,0,0,1,24.62,6.82l.82.35.44-.77L251,91.15l19.91,11.51-12.37,21.4-.44.75.68.53a95.25,95.25,0,0,1,16.95,17.27l.53.7.77-.44,21.84-12.49,11.42,20-21.86,12.5-.76.44.33.81a94.2,94.2,0,0,1,6.16,23l.12.87H320v23H294.37l-.11.88a94.15,94.15,0,0,1-7.1,26l-.35.81.77.45,21.84,12.64-11.51,19.9-22.2-12.84-.75-.43-.53.68a95.6,95.6,0,0,1-16.24,16l-.69.54.43.75,12.56,22-20,11.42L238.09,288l-.44-.77-.81.34a94.52,94.52,0,0,1-24,6.54l-.87.12V320H189V294.37l-.88-.11a94.59,94.59,0,0,1-24.23-6.37l-.8-.33-.44.76-12.94,22.36L129.8,299.16l12.9-22.29.44-.76-.7-.54a95.52,95.52,0,0,1-17.53-17.38l-.54-.69-.75.43-22,12.56-11.42-20L112,238.09l.77-.44-.34-.81a94.23,94.23,0,0,1-6.67-25l-.11-.88H80V188h25.75l.12-.87a94.49,94.49,0,0,1,6.1-22.9l.33-.8-.75-.44L89.89,150.46l11.52-19.9L122.91,143l.76.44.53-.7a95.65,95.65,0,0,1,18.41-18.43l.7-.53-.44-.77-12.49-21.84,20-11.42,12.5,21.86.44.76.81-.33a94.32,94.32,0,0,1,24-6.29l.88-.11V80h23M200,256a56,56,0,1,0-56-56,56.06,56.06,0,0,0,56,56M213,79H188v25.75a95.26,95.26,0,0,0-24.29,6.35l-13-22.72L129,100.79l13,22.71a96.44,96.44,0,0,0-18.59,18.62L101,129.19,88.53,150.83l22.51,13A95.12,95.12,0,0,0,104.88,187H79v25h25.75a95,95,0,0,0,6.74,25.22L88.87,250.15l12.41,21.71,22.84-13.06a96.28,96.28,0,0,0,17.71,17.57l-13.39,23.16L150.08,312l13.43-23.22A95.11,95.11,0,0,0,188,295.25V321h25V295.12a95.32,95.32,0,0,0,24.22-6.61l12.93,22.62,21.71-12.41L258.8,275.88a96.5,96.5,0,0,0,16.41-16.22L298.27,273l12.52-21.64-22.71-13.14A94.93,94.93,0,0,0,295.25,212H321V187H295.12a95.47,95.47,0,0,0-6.22-23.29l22.72-13L299.21,129,276.5,142a96.86,96.86,0,0,0-17.13-17.44l12.88-22.26L250.61,89.78l-12.72,22A95.4,95.4,0,0,0,213,104.88V79ZM200,255a55,55,0,1,1,55-55,55,55,0,0,1-55,55Z"/></svg>